<mxfile host="Electron" modified="2023-08-12T18:34:13.189Z" agent="Mozilla/5.0 (Windows NT 10.0; Win64; x64) AppleWebKit/537.36 (KHTML, like Gecko) draw.io/21.6.5 Chrome/114.0.5735.243 Electron/25.3.1 Safari/537.36" etag="me69CEXmZEbGWBA5kEG_" version="21.6.5" type="device">
  <diagram name="PÃ¡gina-1" id="jLceBdwxxA7mbYZjirkn">
    <mxGraphModel dx="1691" dy="508" grid="1" gridSize="10" guides="1" tooltips="1" connect="1" arrows="1" fold="1" page="1" pageScale="1" pageWidth="827" pageHeight="1169" math="0" shadow="0">
      <root>
        <mxCell id="0" />
        <mxCell id="1" parent="0" />
        <mxCell id="VBneJNs-lClnR5xujhfS-10" value="" style="edgeStyle=orthogonalEdgeStyle;rounded=0;orthogonalLoop=1;jettySize=auto;html=1;" edge="1" parent="1" source="VBneJNs-lClnR5xujhfS-1" target="VBneJNs-lClnR5xujhfS-2">
          <mxGeometry relative="1" as="geometry" />
        </mxCell>
        <mxCell id="VBneJNs-lClnR5xujhfS-1" value="Inicio" style="rounded=1;whiteSpace=wrap;html=1;" vertex="1" parent="1">
          <mxGeometry x="354" y="10" width="120" height="60" as="geometry" />
        </mxCell>
        <mxCell id="VBneJNs-lClnR5xujhfS-8" value="" style="edgeStyle=orthogonalEdgeStyle;rounded=0;orthogonalLoop=1;jettySize=auto;html=1;" edge="1" parent="1" source="VBneJNs-lClnR5xujhfS-2" target="VBneJNs-lClnR5xujhfS-6">
          <mxGeometry relative="1" as="geometry" />
        </mxCell>
        <mxCell id="VBneJNs-lClnR5xujhfS-2" value="Definir&amp;nbsp;&lt;div&gt;&lt;br&gt;&lt;/div&gt;&lt;div&gt;&amp;nbsp; &amp;nbsp; Definir sumasSeguro, totalPago, pagoAseguradora, pagoSocios, pagoEspecial Como numeros reales&lt;/div&gt;" style="rounded=0;whiteSpace=wrap;html=1;" vertex="1" parent="1">
          <mxGeometry x="274" y="100" width="280" height="70" as="geometry" />
        </mxCell>
        <mxCell id="VBneJNs-lClnR5xujhfS-13" value="" style="edgeStyle=orthogonalEdgeStyle;rounded=0;orthogonalLoop=1;jettySize=auto;html=1;" edge="1" parent="1" source="VBneJNs-lClnR5xujhfS-6" target="VBneJNs-lClnR5xujhfS-12">
          <mxGeometry relative="1" as="geometry" />
        </mxCell>
        <mxCell id="VBneJNs-lClnR5xujhfS-6" value="Imprimir; &quot;bienvenido al sistema de manejo de polizas" style="shape=parallelogram;perimeter=parallelogramPerimeter;whiteSpace=wrap;html=1;fixedSize=1;" vertex="1" parent="1">
          <mxGeometry x="294" y="200" width="239" height="50" as="geometry" />
        </mxCell>
        <mxCell id="VBneJNs-lClnR5xujhfS-15" value="" style="edgeStyle=orthogonalEdgeStyle;rounded=0;orthogonalLoop=1;jettySize=auto;html=1;" edge="1" parent="1" source="VBneJNs-lClnR5xujhfS-12" target="VBneJNs-lClnR5xujhfS-14">
          <mxGeometry relative="1" as="geometry" />
        </mxCell>
        <mxCell id="VBneJNs-lClnR5xujhfS-12" value="Imprimir:&amp;nbsp;&quot;Ingrese la suma asegurada:&quot;" style="shape=parallelogram;perimeter=parallelogramPerimeter;whiteSpace=wrap;html=1;fixedSize=1;" vertex="1" parent="1">
          <mxGeometry x="324" y="280" width="180" height="50" as="geometry" />
        </mxCell>
        <mxCell id="VBneJNs-lClnR5xujhfS-17" value="" style="edgeStyle=orthogonalEdgeStyle;rounded=0;orthogonalLoop=1;jettySize=auto;html=1;" edge="1" parent="1" source="VBneJNs-lClnR5xujhfS-14" target="VBneJNs-lClnR5xujhfS-16">
          <mxGeometry relative="1" as="geometry" />
        </mxCell>
        <mxCell id="VBneJNs-lClnR5xujhfS-14" value="SumasSeguro" style="shape=parallelogram;perimeter=parallelogramPerimeter;whiteSpace=wrap;html=1;fixedSize=1;" vertex="1" parent="1">
          <mxGeometry x="354" y="360" width="120" height="60" as="geometry" />
        </mxCell>
        <mxCell id="VBneJNs-lClnR5xujhfS-19" value="" style="edgeStyle=orthogonalEdgeStyle;rounded=0;orthogonalLoop=1;jettySize=auto;html=1;" edge="1" parent="1" source="VBneJNs-lClnR5xujhfS-16" target="VBneJNs-lClnR5xujhfS-18">
          <mxGeometry relative="1" as="geometry" />
        </mxCell>
        <mxCell id="VBneJNs-lClnR5xujhfS-28" value="" style="edgeStyle=orthogonalEdgeStyle;rounded=0;orthogonalLoop=1;jettySize=auto;html=1;" edge="1" parent="1" source="VBneJNs-lClnR5xujhfS-16" target="VBneJNs-lClnR5xujhfS-27">
          <mxGeometry relative="1" as="geometry" />
        </mxCell>
        <mxCell id="VBneJNs-lClnR5xujhfS-16" value="sumaAsegurada &lt;= 100000" style="rhombus;whiteSpace=wrap;html=1;" vertex="1" parent="1">
          <mxGeometry x="361" y="440" width="106" height="100" as="geometry" />
        </mxCell>
        <mxCell id="VBneJNs-lClnR5xujhfS-31" value="" style="edgeStyle=orthogonalEdgeStyle;rounded=0;orthogonalLoop=1;jettySize=auto;html=1;" edge="1" parent="1" source="VBneJNs-lClnR5xujhfS-18" target="VBneJNs-lClnR5xujhfS-30">
          <mxGeometry relative="1" as="geometry" />
        </mxCell>
        <mxCell id="VBneJNs-lClnR5xujhfS-18" value="pagoAseguradora &lt;- sumasSeguro * 0.8" style="whiteSpace=wrap;html=1;" vertex="1" parent="1">
          <mxGeometry x="500" y="555" width="120" height="60" as="geometry" />
        </mxCell>
        <mxCell id="VBneJNs-lClnR5xujhfS-20" value="V" style="text;html=1;align=center;verticalAlign=middle;resizable=0;points=[];autosize=1;strokeColor=none;fillColor=none;" vertex="1" parent="1">
          <mxGeometry x="490" y="450" width="30" height="30" as="geometry" />
        </mxCell>
        <mxCell id="VBneJNs-lClnR5xujhfS-33" value="" style="edgeStyle=orthogonalEdgeStyle;rounded=0;orthogonalLoop=1;jettySize=auto;html=1;" edge="1" parent="1" source="VBneJNs-lClnR5xujhfS-27" target="VBneJNs-lClnR5xujhfS-32">
          <mxGeometry relative="1" as="geometry" />
        </mxCell>
        <mxCell id="VBneJNs-lClnR5xujhfS-45" value="" style="edgeStyle=orthogonalEdgeStyle;rounded=0;orthogonalLoop=1;jettySize=auto;html=1;" edge="1" parent="1" source="VBneJNs-lClnR5xujhfS-27" target="VBneJNs-lClnR5xujhfS-44">
          <mxGeometry relative="1" as="geometry" />
        </mxCell>
        <mxCell id="VBneJNs-lClnR5xujhfS-27" value="sumasSeguro &amp;gt; 100000 Y sumasSeguro &amp;lt;= 120000" style="rhombus;whiteSpace=wrap;html=1;" vertex="1" parent="1">
          <mxGeometry x="130" y="555" width="180" height="95" as="geometry" />
        </mxCell>
        <mxCell id="VBneJNs-lClnR5xujhfS-29" value="F" style="text;html=1;align=center;verticalAlign=middle;resizable=0;points=[];autosize=1;strokeColor=none;fillColor=none;" vertex="1" parent="1">
          <mxGeometry x="305" y="458" width="30" height="30" as="geometry" />
        </mxCell>
        <mxCell id="VBneJNs-lClnR5xujhfS-30" value="pagoSocios &lt;- sumasSeguro * 0.2 / 2" style="whiteSpace=wrap;html=1;" vertex="1" parent="1">
          <mxGeometry x="500" y="640" width="120" height="60" as="geometry" />
        </mxCell>
        <mxCell id="VBneJNs-lClnR5xujhfS-35" value="" style="edgeStyle=orthogonalEdgeStyle;rounded=0;orthogonalLoop=1;jettySize=auto;html=1;" edge="1" parent="1" source="VBneJNs-lClnR5xujhfS-32" target="VBneJNs-lClnR5xujhfS-34">
          <mxGeometry relative="1" as="geometry" />
        </mxCell>
        <mxCell id="VBneJNs-lClnR5xujhfS-32" value="pagoAseguradora &lt;- 100000 * 0.8" style="whiteSpace=wrap;html=1;" vertex="1" parent="1">
          <mxGeometry x="-60" y="660" width="120" height="60" as="geometry" />
        </mxCell>
        <mxCell id="VBneJNs-lClnR5xujhfS-37" value="" style="edgeStyle=orthogonalEdgeStyle;rounded=0;orthogonalLoop=1;jettySize=auto;html=1;" edge="1" parent="1" source="VBneJNs-lClnR5xujhfS-34" target="VBneJNs-lClnR5xujhfS-36">
          <mxGeometry relative="1" as="geometry" />
        </mxCell>
        <mxCell id="VBneJNs-lClnR5xujhfS-34" value="pagoSocios &lt;- 100000 * 0.2 / 2" style="whiteSpace=wrap;html=1;" vertex="1" parent="1">
          <mxGeometry x="-60" y="750" width="120" height="60" as="geometry" />
        </mxCell>
        <mxCell id="VBneJNs-lClnR5xujhfS-39" value="" style="edgeStyle=orthogonalEdgeStyle;rounded=0;orthogonalLoop=1;jettySize=auto;html=1;" edge="1" parent="1" source="VBneJNs-lClnR5xujhfS-36" target="VBneJNs-lClnR5xujhfS-38">
          <mxGeometry relative="1" as="geometry" />
        </mxCell>
        <mxCell id="VBneJNs-lClnR5xujhfS-36" value="totalPago &lt;- sumasSeguro - 100000" style="whiteSpace=wrap;html=1;" vertex="1" parent="1">
          <mxGeometry x="-60" y="840" width="120" height="60" as="geometry" />
        </mxCell>
        <mxCell id="VBneJNs-lClnR5xujhfS-41" value="" style="edgeStyle=orthogonalEdgeStyle;rounded=0;orthogonalLoop=1;jettySize=auto;html=1;" edge="1" parent="1" source="VBneJNs-lClnR5xujhfS-38" target="VBneJNs-lClnR5xujhfS-40">
          <mxGeometry relative="1" as="geometry" />
        </mxCell>
        <mxCell id="VBneJNs-lClnR5xujhfS-38" value="pagoSocios &lt;- pagoSocios + totalPago / 2" style="whiteSpace=wrap;html=1;" vertex="1" parent="1">
          <mxGeometry x="-60" y="930" width="120" height="60" as="geometry" />
        </mxCell>
        <mxCell id="VBneJNs-lClnR5xujhfS-43" value="" style="edgeStyle=orthogonalEdgeStyle;rounded=0;orthogonalLoop=1;jettySize=auto;html=1;" edge="1" parent="1" source="VBneJNs-lClnR5xujhfS-40" target="VBneJNs-lClnR5xujhfS-42">
          <mxGeometry relative="1" as="geometry" />
        </mxCell>
        <mxCell id="VBneJNs-lClnR5xujhfS-40" value="totalPago &amp;lt;- totalPago - totalPago / 2" style="whiteSpace=wrap;html=1;" vertex="1" parent="1">
          <mxGeometry x="-60" y="1010" width="120" height="60" as="geometry" />
        </mxCell>
        <mxCell id="VBneJNs-lClnR5xujhfS-42" value="pagoEspecial &lt;- totalPago" style="whiteSpace=wrap;html=1;" vertex="1" parent="1">
          <mxGeometry x="-61" y="1087" width="120" height="60" as="geometry" />
        </mxCell>
        <mxCell id="VBneJNs-lClnR5xujhfS-47" value="" style="edgeStyle=orthogonalEdgeStyle;rounded=0;orthogonalLoop=1;jettySize=auto;html=1;" edge="1" parent="1" source="VBneJNs-lClnR5xujhfS-44" target="VBneJNs-lClnR5xujhfS-46">
          <mxGeometry relative="1" as="geometry" />
        </mxCell>
        <mxCell id="VBneJNs-lClnR5xujhfS-44" value="&amp;nbsp; pagoAseguradora &amp;lt;- 100000 * 0.8" style="whiteSpace=wrap;html=1;" vertex="1" parent="1">
          <mxGeometry x="347" y="680" width="120" height="60" as="geometry" />
        </mxCell>
        <mxCell id="VBneJNs-lClnR5xujhfS-49" value="" style="edgeStyle=orthogonalEdgeStyle;rounded=0;orthogonalLoop=1;jettySize=auto;html=1;" edge="1" parent="1" source="VBneJNs-lClnR5xujhfS-46" target="VBneJNs-lClnR5xujhfS-48">
          <mxGeometry relative="1" as="geometry" />
        </mxCell>
        <mxCell id="VBneJNs-lClnR5xujhfS-46" value="pagoSocios &amp;lt;- 100000 * 0.2 / 2" style="whiteSpace=wrap;html=1;" vertex="1" parent="1">
          <mxGeometry x="347" y="770" width="120" height="60" as="geometry" />
        </mxCell>
        <mxCell id="VBneJNs-lClnR5xujhfS-51" value="" style="edgeStyle=orthogonalEdgeStyle;rounded=0;orthogonalLoop=1;jettySize=auto;html=1;" edge="1" parent="1" source="VBneJNs-lClnR5xujhfS-48" target="VBneJNs-lClnR5xujhfS-50">
          <mxGeometry relative="1" as="geometry" />
        </mxCell>
        <mxCell id="VBneJNs-lClnR5xujhfS-48" value="totalPago &amp;lt;- sumasSeguro - 100000" style="whiteSpace=wrap;html=1;" vertex="1" parent="1">
          <mxGeometry x="347" y="850" width="120" height="60" as="geometry" />
        </mxCell>
        <mxCell id="VBneJNs-lClnR5xujhfS-50" value="pagoSocios &amp;lt;- pagoSocios + totalPago / 2" style="whiteSpace=wrap;html=1;" vertex="1" parent="1">
          <mxGeometry x="347" y="930" width="120" height="60" as="geometry" />
        </mxCell>
        <mxCell id="VBneJNs-lClnR5xujhfS-53" value="" style="endArrow=classic;html=1;rounded=0;" edge="1" parent="1">
          <mxGeometry width="50" height="50" relative="1" as="geometry">
            <mxPoint y="1147" as="sourcePoint" />
            <mxPoint y="1280" as="targetPoint" />
          </mxGeometry>
        </mxCell>
        <mxCell id="VBneJNs-lClnR5xujhfS-58" value="" style="endArrow=classic;html=1;rounded=0;" edge="1" parent="1">
          <mxGeometry width="50" height="50" relative="1" as="geometry">
            <mxPoint x="413" y="990" as="sourcePoint" />
            <mxPoint x="410" y="1280" as="targetPoint" />
          </mxGeometry>
        </mxCell>
        <mxCell id="VBneJNs-lClnR5xujhfS-59" value="" style="endArrow=none;html=1;rounded=0;" edge="1" parent="1">
          <mxGeometry width="50" height="50" relative="1" as="geometry">
            <mxPoint y="1280" as="sourcePoint" />
            <mxPoint x="410" y="1280" as="targetPoint" />
            <Array as="points" />
          </mxGeometry>
        </mxCell>
        <mxCell id="VBneJNs-lClnR5xujhfS-61" value="" style="endArrow=classic;html=1;rounded=0;" edge="1" parent="1">
          <mxGeometry width="50" height="50" relative="1" as="geometry">
            <mxPoint x="219.5" y="1290" as="sourcePoint" />
            <mxPoint x="219.5" y="1300" as="targetPoint" />
            <Array as="points">
              <mxPoint x="219.5" y="1280" />
            </Array>
          </mxGeometry>
        </mxCell>
        <mxCell id="VBneJNs-lClnR5xujhfS-64" value="" style="edgeStyle=orthogonalEdgeStyle;rounded=0;orthogonalLoop=1;jettySize=auto;html=1;" edge="1" parent="1" source="VBneJNs-lClnR5xujhfS-62" target="VBneJNs-lClnR5xujhfS-63">
          <mxGeometry relative="1" as="geometry" />
        </mxCell>
        <mxCell id="VBneJNs-lClnR5xujhfS-62" value="Imprimir &quot;&#39;Pago a la aseguradora&quot;" style="shape=parallelogram;perimeter=parallelogramPerimeter;whiteSpace=wrap;html=1;fixedSize=1;" vertex="1" parent="1">
          <mxGeometry x="154" y="1300" width="146" height="70" as="geometry" />
        </mxCell>
        <mxCell id="VBneJNs-lClnR5xujhfS-66" value="" style="edgeStyle=orthogonalEdgeStyle;rounded=0;orthogonalLoop=1;jettySize=auto;html=1;" edge="1" parent="1" source="VBneJNs-lClnR5xujhfS-63" target="VBneJNs-lClnR5xujhfS-65">
          <mxGeometry relative="1" as="geometry" />
        </mxCell>
        <mxCell id="VBneJNs-lClnR5xujhfS-63" value="Imprimir: &quot;Pago a los socios:&quot;" style="shape=parallelogram;perimeter=parallelogramPerimeter;whiteSpace=wrap;html=1;fixedSize=1;" vertex="1" parent="1">
          <mxGeometry x="150.5" y="1400" width="153" height="55" as="geometry" />
        </mxCell>
        <mxCell id="VBneJNs-lClnR5xujhfS-68" value="" style="edgeStyle=orthogonalEdgeStyle;rounded=0;orthogonalLoop=1;jettySize=auto;html=1;" edge="1" parent="1" source="VBneJNs-lClnR5xujhfS-65" target="VBneJNs-lClnR5xujhfS-67">
          <mxGeometry relative="1" as="geometry" />
        </mxCell>
        <mxCell id="VBneJNs-lClnR5xujhfS-65" value="pagoEspecial &gt; 0" style="rhombus;whiteSpace=wrap;html=1;" vertex="1" parent="1">
          <mxGeometry x="170.5" y="1510" width="113" height="77.5" as="geometry" />
        </mxCell>
        <mxCell id="VBneJNs-lClnR5xujhfS-67" value="Imprimir: &#39;Pago al socio con contrato especial&quot;" style="whiteSpace=wrap;html=1;" vertex="1" parent="1">
          <mxGeometry x="320" y="1600" width="120" height="60" as="geometry" />
        </mxCell>
        <mxCell id="VBneJNs-lClnR5xujhfS-69" value="" style="endArrow=classic;html=1;rounded=0;" edge="1" parent="1">
          <mxGeometry width="50" height="50" relative="1" as="geometry">
            <mxPoint x="170.5" y="1548.25" as="sourcePoint" />
            <mxPoint x="60.5" y="1548.25" as="targetPoint" />
          </mxGeometry>
        </mxCell>
        <mxCell id="VBneJNs-lClnR5xujhfS-70" value="V" style="text;html=1;align=center;verticalAlign=middle;resizable=0;points=[];autosize=1;strokeColor=none;fillColor=none;" vertex="1" parent="1">
          <mxGeometry x="305" y="1518" width="30" height="30" as="geometry" />
        </mxCell>
        <mxCell id="VBneJNs-lClnR5xujhfS-71" value="F" style="text;html=1;align=center;verticalAlign=middle;resizable=0;points=[];autosize=1;strokeColor=none;fillColor=none;" vertex="1" parent="1">
          <mxGeometry x="125" y="1508" width="30" height="30" as="geometry" />
        </mxCell>
        <mxCell id="VBneJNs-lClnR5xujhfS-72" value="" style="endArrow=none;html=1;rounded=0;" edge="1" parent="1">
          <mxGeometry width="50" height="50" relative="1" as="geometry">
            <mxPoint x="70" y="1690" as="sourcePoint" />
            <mxPoint x="70" y="1550" as="targetPoint" />
          </mxGeometry>
        </mxCell>
        <mxCell id="VBneJNs-lClnR5xujhfS-74" value="" style="endArrow=none;html=1;rounded=0;" edge="1" parent="1">
          <mxGeometry width="50" height="50" relative="1" as="geometry">
            <mxPoint x="69" y="1690" as="sourcePoint" />
            <mxPoint x="154" y="1690" as="targetPoint" />
          </mxGeometry>
        </mxCell>
        <mxCell id="VBneJNs-lClnR5xujhfS-75" value="" style="endArrow=none;html=1;rounded=0;" edge="1" parent="1">
          <mxGeometry width="50" height="50" relative="1" as="geometry">
            <mxPoint x="404" y="1700" as="sourcePoint" />
            <mxPoint x="404" y="1660" as="targetPoint" />
          </mxGeometry>
        </mxCell>
        <mxCell id="VBneJNs-lClnR5xujhfS-76" value="" style="endArrow=none;html=1;rounded=0;" edge="1" parent="1">
          <mxGeometry width="50" height="50" relative="1" as="geometry">
            <mxPoint x="150" y="1690" as="sourcePoint" />
            <mxPoint x="399.5" y="1700" as="targetPoint" />
          </mxGeometry>
        </mxCell>
        <mxCell id="VBneJNs-lClnR5xujhfS-77" value="" style="endArrow=classic;html=1;rounded=0;" edge="1" parent="1">
          <mxGeometry width="50" height="50" relative="1" as="geometry">
            <mxPoint x="220" y="1600" as="sourcePoint" />
            <mxPoint x="270" y="1550" as="targetPoint" />
          </mxGeometry>
        </mxCell>
        <mxCell id="VBneJNs-lClnR5xujhfS-78" value="" style="endArrow=classic;html=1;rounded=0;" edge="1" parent="1">
          <mxGeometry width="50" height="50" relative="1" as="geometry">
            <mxPoint x="242" y="1700" as="sourcePoint" />
            <mxPoint x="242" y="1710" as="targetPoint" />
            <Array as="points">
              <mxPoint x="240" y="1690" />
            </Array>
          </mxGeometry>
        </mxCell>
        <mxCell id="VBneJNs-lClnR5xujhfS-79" value="Final" style="rounded=1;whiteSpace=wrap;html=1;" vertex="1" parent="1">
          <mxGeometry x="183.5" y="1710" width="120" height="60" as="geometry" />
        </mxCell>
      </root>
    </mxGraphModel>
  </diagram>
</mxfile>
